<mxfile host="app.diagrams.net" modified="2021-02-21T15:48:43.987Z" agent="5.0 (Macintosh; Intel Mac OS X 10_15_7) AppleWebKit/605.1.15 (KHTML, like Gecko) Version/14.0.2 Safari/605.1.15" etag="bKRyhIOFwUDujJ5354wr" version="14.4.2" type="github">
  <diagram id="0wFvAnEDO4EjTQrQDb5t" name="Page-1">
    <mxGraphModel dx="1419" dy="952" grid="1" gridSize="10" guides="1" tooltips="1" connect="1" arrows="1" fold="1" page="1" pageScale="1" pageWidth="1169" pageHeight="827" math="0" shadow="0">
      <root>
        <mxCell id="0" />
        <mxCell id="1" parent="0" />
        <mxCell id="3Z4Nqz_ZfoVrnNreRxQy-1" value="" style="rounded=1;whiteSpace=wrap;html=1;sketch=10;" vertex="1" parent="1">
          <mxGeometry x="300" y="220" width="310" height="150" as="geometry" />
        </mxCell>
        <mxCell id="3Z4Nqz_ZfoVrnNreRxQy-2" value="" style="shape=cylinder3;whiteSpace=wrap;html=1;boundedLbl=1;backgroundOutline=1;size=15;sketch=10;" vertex="1" parent="1">
          <mxGeometry x="680" y="220" width="200" height="194" as="geometry" />
        </mxCell>
      </root>
    </mxGraphModel>
  </diagram>
</mxfile>
